<svg width="350" height="72" viewBox="0 0 350 72" fill="none" xmlns="http://www.w3.org/2000/svg">
<path d="M14.1463 70.0392H1.24219C0.552132 70.0392 8.62572e-05 69.4871 8.62572e-05 68.7971V34.7772C8.62572e-05 34.0872 0.552175 33.5351 1.24219 33.5351C1.9322 33.5351 2.48421 34.0872 2.48421 34.7772V67.555H12.9041V40.5047C12.9041 39.8147 13.4562 39.2627 14.1462 39.2627H28.0853V30.637H7.59063C3.38128 30.637 0 27.2557 0 23.0463V2.27562C0 1.58556 0.552089 1.03351 1.2421 1.03351H31.8116C32.5017 1.03351 33.0538 1.5856 33.0538 2.27562V13.9376C33.0538 14.6276 32.5017 15.1797 31.8116 15.1797H15.3883V21.3212C15.3883 22.0113 14.8362 22.5632 14.1462 22.5632C13.4562 22.5632 12.9041 22.0112 12.9041 21.3212V13.9376C12.9041 13.2475 13.4562 12.6956 14.1462 12.6956H30.5695V3.5178H2.48421V23.0464C2.48421 25.8757 4.7614 28.1529 7.59063 28.1529H29.2584C29.9485 28.1529 30.5005 28.7049 30.5005 29.3949V40.5048C30.5005 41.1949 29.9484 41.678 29.2584 41.678H15.3883V68.7972C15.3883 69.4873 14.8363 70.0392 14.1463 70.0392ZM67.712 71.0743H67.574C59.0863 71.0032 57.5682 64.5353 56.9471 61.7637L56.8781 61.266C55.912 57.2147 56.05 47.0508 56.119 40.2986V36.4606C56.119 27.2914 56.326 20.3969 57.4991 17.057C58.6723 13.7165 60.5354 11.9396 63.1576 11.9396C66.3318 11.9396 68.057 13.4322 69.2301 17.128C70.5412 21.3214 70.4722 30.6324 70.4722 35.11C70.4722 37.2423 70.5412 48.1167 69.7821 52.5943C69.3681 55.082 68.609 57.7829 66.2628 58.9912C65.6418 59.2755 64.8827 59.0623 64.6067 58.4225C64.3307 57.7829 64.5377 57.001 65.1588 56.7169C66.2629 56.1482 66.8839 54.8688 67.298 52.1681C67.988 47.7612 68.057 36.3891 68.057 35.1099C68.057 31.1295 68.057 21.7478 66.8839 17.9093C65.9868 14.9953 64.9518 14.4978 63.1576 14.4978C62.1225 14.4978 60.8804 14.8531 59.8453 17.8384C58.7412 21.0368 58.6033 28.7128 58.6033 36.4604C58.6033 37.5265 58.5342 38.8058 58.5342 40.2984C58.4652 46.9086 58.3963 57.0013 59.2934 60.6974L59.4313 61.1949C60.1214 64.1091 61.0875 68.5158 67.712 68.5158H67.85C77.9939 68.4447 81.5822 51.1022 81.5822 36.247C81.5822 13.2896 75.8547 2.55705 63.4336 2.55705C50.8746 2.55705 45.0091 12.8631 45.0091 35.0393C45.0091 47.193 46.6652 56.0067 50.0465 61.9775C50.2535 62.2619 50.6676 63.0436 51.4266 63.9676C51.8407 64.4651 51.7717 65.318 51.2886 65.7446C50.8056 66.171 49.9776 66.171 49.5634 65.6025C48.6664 64.5363 48.1833 63.6833 47.9764 63.3279C44.2501 56.8601 42.5249 47.9042 42.5249 35.0398C42.5249 11.442 49.3565 0 63.4337 0C81.9272 0 84.1354 20.6827 84.1354 36.2496C84.1354 53.0947 79.788 71.0743 67.712 71.0743ZM131.025 70.0392H117.5C116.948 70.0392 116.465 69.6941 116.326 69.1421L109.978 45.5421H107.701V68.7971C107.701 69.4871 107.218 70.0392 106.528 70.0392H93.9686C93.2785 70.0392 92.7265 69.4871 92.7265 68.7971V37.5375C92.7265 33.1901 94.5896 31.3269 98.937 31.3269H109.564C112.807 31.3269 114.946 30.7749 114.946 22.3562C114.946 16.4217 113.428 14.0065 109.564 14.0065H107.701V24.4954C107.701 25.1854 107.218 25.7375 106.528 25.7375C105.837 25.7375 105.285 25.1854 105.285 24.4954V12.7644C105.285 12.0743 105.838 11.5223 106.528 11.5223H109.564C117.43 11.5223 117.43 19.665 117.43 22.3562C117.43 30.7749 115.291 33.8112 109.564 33.8112H98.9369C95.9697 33.8112 95.2106 34.5702 95.2106 37.5375V67.555H105.285V44.231C105.285 43.541 105.838 42.989 106.528 42.989H110.944C111.289 42.989 111.565 43.196 111.772 43.403C111.91 43.541 112.117 43.817 112.117 44.0241L118.466 67.5551H129.299L120.95 42.1609C120.881 42.023 120.881 41.8159 120.881 41.6089C120.881 41.2639 121.157 40.9189 121.433 40.7119C121.709 40.5739 121.985 40.2978 122.261 40.0908C125.918 37.1235 128.264 30.706 128.264 23.3914C128.264 17.6639 127.022 12.9025 124.607 9.24522C120.95 3.51774 115.429 3.51774 109.564 3.51774H95.2106V26.1516C95.2106 26.8417 94.6586 27.3936 93.9686 27.3936C93.2786 27.3936 92.7265 26.8416 92.7265 26.1516V2.27564C92.7265 1.58558 93.2786 1.03353 93.9686 1.03353H109.564C115.498 1.03353 122.33 1.10252 126.677 7.93411C129.369 12.0054 130.749 17.1809 130.749 23.3914C130.749 31.5341 128.126 38.5037 123.848 42.0229C123.779 42.0919 123.641 42.1609 123.572 42.2299L132.198 68.4521C132.336 68.7971 132.198 69.2112 131.991 69.5563C131.784 69.9013 131.439 70.0392 131.025 70.0392ZM174.533 70.0392H142.1C141.41 70.0392 140.858 69.4871 140.858 68.7971V46.8532V46.7842C140.858 42.7129 144.17 39.4006 148.311 39.2626H148.449H168.736V30.6369H154.935C154.245 30.6369 153.693 30.0848 153.693 29.3948V13.9375C153.693 13.2475 154.245 12.6955 154.935 12.6955H173.291V3.51774H143.342V35.2604C143.342 35.9504 142.79 36.4336 142.1 36.4336C141.41 36.4336 140.858 35.9505 140.858 35.2604V2.27563C140.858 1.58557 141.41 1.03353 142.1 1.03353H174.533C175.223 1.03353 175.775 1.58562 175.775 2.27563V13.9376C175.775 14.6277 175.223 15.1797 174.533 15.1797H156.177V28.1528H169.91C170.6 28.1528 171.152 28.7048 171.152 29.3948V40.5047C171.152 41.1948 170.6 41.6779 169.91 41.6779H148.587C145.689 41.6779 143.342 44.0241 143.342 46.8533V46.9223V67.5551H173.291V58.3773H154.935C154.245 58.3773 153.693 57.8253 153.693 57.1353V48.5786C153.693 47.8885 154.245 47.3365 154.935 47.3365C155.625 47.3365 156.177 47.8885 156.177 48.5786V55.8932H174.533C175.223 55.8932 175.775 56.4453 175.775 57.1353V68.7972C175.775 69.4873 175.223 70.0392 174.533 70.0392ZM234.844 70.0392H221.664C221.181 70.0392 220.767 69.7631 220.56 69.3491L212.831 54.3059C212.555 53.6849 212.693 52.9257 213.314 52.6498C213.935 52.3738 214.763 52.5807 215.039 53.2018L222.423 67.555H232.774L215.384 34.8463C215.177 34.5013 215.177 34.0872 215.384 33.7422L230.98 3.51768H221.181L211.382 22.9773C211.313 23.1153 211.175 23.2533 211.106 23.3223C210.623 23.8053 209.795 23.8053 209.312 23.3223C209.243 23.2533 209.105 23.0463 209.105 22.9773L199.168 3.51768H189.507C193.164 10.5563 206.275 35.9504 208.277 40.0217C210.761 44.9901 211.175 47.4053 208.76 52.0977L199.858 69.3492C199.651 69.7632 199.237 70.0392 198.754 70.0392H185.574C185.16 70.0392 184.677 69.8322 184.47 69.4871C184.263 69.1421 184.263 68.5901 184.47 68.2451L198.202 40.7808C198.478 40.1597 199.237 39.8838 199.858 40.1597C200.479 40.4358 200.686 41.2639 200.41 41.8849L187.575 67.555H197.995L206.552 50.9936C208.553 47.1293 208.208 45.4732 206 41.1258C203.653 36.5024 186.471 3.17267 186.333 2.82764C186.126 2.48261 186.195 1.99961 186.402 1.65454C186.609 1.30947 187.023 1.03347 187.437 1.03347H199.996C200.479 1.03347 200.893 1.30951 201.1 1.72353L210.209 19.734L219.318 1.72353C219.525 1.30951 219.939 1.03347 220.422 1.03347H232.981C233.395 1.03347 233.809 1.30951 234.016 1.65454C234.223 1.99957 234.292 2.48257 234.085 2.82764L217.869 34.2943L235.948 68.2451C236.155 68.5901 236.155 69.0731 235.948 69.4182C235.741 69.7632 235.258 70.0392 234.844 70.0392ZM258.375 70.0392H245.954C245.264 70.0392 244.712 69.4871 244.712 68.7971V22.7012C244.712 16.4217 248.231 15.5936 251.198 15.5936H252.716C253.406 15.5936 253.958 16.1457 253.958 16.8357C253.958 17.5258 253.406 18.0778 252.716 18.0778H251.198C248.783 18.0778 247.196 18.4228 247.196 22.7011V67.5549H257.202V3.51755H247.196V9.79707C247.196 10.4871 246.644 11.0392 245.954 11.0392C245.264 11.0392 244.712 10.4871 244.712 9.79707V2.27544C244.712 1.58539 245.264 1.03334 245.954 1.03334H258.375C259.065 1.03334 259.617 1.58543 259.617 2.27544V68.797C259.617 69.487 259.065 70.0392 258.375 70.0392ZM282.32 70.0392H269.416C268.726 70.0392 268.174 69.4871 268.174 68.7971V34.7772C268.174 34.0872 268.726 33.5351 269.416 33.5351C270.106 33.5351 270.658 34.0872 270.658 34.7772V67.555H281.078V40.5047C281.078 39.8147 281.63 39.2627 282.32 39.2627H296.259V30.637H275.764C271.555 30.637 268.174 27.2557 268.174 23.0463V2.27562C268.174 1.58556 268.726 1.03351 269.416 1.03351H299.985C300.675 1.03351 301.227 1.5856 301.227 2.27562V13.9376C301.227 14.6276 300.675 15.1797 299.985 15.1797H283.562V21.3212C283.562 22.0113 283.01 22.5632 282.32 22.5632C281.63 22.5632 281.078 22.0112 281.078 21.3212V13.9376C281.078 13.2475 281.63 12.6956 282.32 12.6956H298.743V3.5178H270.658V23.0464C270.658 25.8757 272.935 28.1529 275.764 28.1529H297.432C298.122 28.1529 298.674 28.7049 298.674 29.3949V40.5048C298.674 41.1949 298.122 41.678 297.432 41.678H283.562V68.7972C283.562 69.4873 283.01 70.0392 282.32 70.0392ZM336.334 70.0392H323.499C322.809 70.0392 322.257 69.4871 322.257 68.7971V40.4357L309.905 2.62056C309.767 2.27553 309.836 1.86143 310.043 1.51638C310.25 1.17135 310.664 1.03338 311.078 1.03338H323.292C323.844 1.03338 324.327 1.37841 324.465 1.86141C324.465 1.86141 332.056 23.9432 334.126 29.9467C334.54 31.1888 335.368 31.3959 336.058 31.3959C337.093 31.3959 338.059 30.8438 338.335 30.0158C339.577 26.3584 345.236 8.969 347.03 3.51755H337.507L334.678 14.8345C334.54 15.5245 333.85 15.8696 333.16 15.7316C332.47 15.5935 332.125 14.9035 332.263 14.2134L335.299 1.99933C335.437 1.44724 335.989 1.03325 336.541 1.03325H348.755C349.169 1.03325 349.583 1.17123 349.79 1.51625C349.997 1.86128 350.066 2.27538 349.928 2.62043C349.859 2.82739 342.131 26.5654 340.681 30.8438C340.06 32.638 338.128 33.949 336.058 33.949C334.057 33.949 332.47 32.707 331.78 30.7748C329.985 25.4613 323.844 7.58884 322.395 3.5175H312.734L324.672 39.8145C324.672 39.9526 324.741 40.0906 324.741 40.2286V67.5549H335.092V40.8497C335.092 40.1596 335.644 39.6766 336.334 39.6766C337.024 39.6766 337.576 40.1596 337.576 40.8497V68.797C337.576 69.4871 337.024 70.0392 336.334 70.0392Z" fill="#1A5276"/>
</svg>
