<svg
  data-v-2cb57da0=""
  version="1.0"
  xmlns="http://www.w3.org/2000/svg"
  xmlns:xlink="http://www.w3.org/1999/xlink"
  width="100%"
  height="100%"
  viewBox="0 0 340.000000 250.000000"
  preserveAspectRatio="xMidYMid meet"
  color-interpolation-filters="sRGB"
  style="margin: auto"
>
  <g
    data-v-2cb57da0=""
    fill="#333"
    class="iconlinesvg-g iconlinesvg"
    transform="translate(81.0982518196106,95.95886421203613)"
  >
    <g class="tp-name" transform="translate(0,0)">
      <g transform="translate(0, 3.9018288540949477)">
        <g data-gra="path-name" fill="#333" transform="scale(1)">
          <path
            d="M19.88-37.77L19.88-37.77Q20.65-37.77 21.18-37.23Q21.72-36.70 21.72-35.98L21.72-35.98Q21.72-35.21 21.18-34.68Q20.65-34.14 19.88-34.14L19.88-34.14L8.13-34.14L8.13-18.45L16.97-18.45Q17.73-18.45 18.25-17.91Q18.76-17.38 18.76-16.61L18.76-16.61Q18.76-15.89 18.25-15.36Q17.73-14.82 16.97-14.82L16.97-14.82L8.13-14.82L8.13-1.53Q8.13-0.82 7.59-0.28Q7.05 0.26 6.34 0.26L6.34 0.26Q5.57 0.26 5.03-0.28Q4.50-0.82 4.50-1.53L4.50-1.53L4.50-35.98Q4.50-36.70 5.03-37.23Q5.57-37.77 6.34-37.77L6.34-37.77L19.88-37.77Z"
            transform="translate(-4.497444633730834, 38.126064735945484)"
          ></path>
        </g>
      </g>
      <g transform="translate(21, 0)">
        <g>
          <g class="imagesvg">
            <g>
              <rect
                fill="#333"
                fill-opacity="0"
                stroke-width="2"
                x="0"
                y="0"
                width="46.793867120954"
                height="46.79854697565156"
                class="image-rect"
              ></rect>
              <svg
                filter="url(#colors8334271902)"
                x="0"
                y="0"
                width="46.793867120954"
                height="46.79854697565156"
                filtersec="colorsf9174440993"
                class="image-svg-svg primary"
                style="overflow: visible"
              >
                <svg
                  xmlns="http://www.w3.org/2000/svg"
                  viewBox="0.8443949818611145 0.8348350524902344 98.31810760498047 98.32769775390625"
                >
                  <g transform="matrix(.69 0 0 .69 15.5 15.5)">
                    <path
                      fill="#333333"
                      d="M-15.65 52.89c5.88 0 13.43-.8 20.54-.5a58.7 58.7 0 0 1 20.45 4.03A138.14 138.14 0 0 1 44.4 66.2c1.64.93 3.29 1.78 4.99 2.76s3.44 1.78 5.24 2.69c3.67 1.79 7.49 3.26 11.42 4.4 4.16 1.14 8.44 1.73 12.75 1.78 4.59.06 9.18-.46 13.64-1.55a68.521 68.521 0 0 0 25.1-11.83c.94-.71 1.78-1.42 2.69-2.16.37-2.1.64-4.22.82-6.38-1.07.46-2.24.94-3.56 1.39a97.432 97.432 0 0 1-23.15 5.34c-4.09.42-8.2.54-12.31.36-3.93-.18-7.83-.67-11.68-1.46-3.69-.76-7.31-1.83-10.83-3.19-1.78-.68-3.44-1.41-5.11-2.16-1.67-.75-3.33-1.57-4.97-2.37a94.778 94.778 0 0 0-20.04-8.14 61.916 61.916 0 0 0-22.66-.84c-10.8 1.6-22.05 5.16-27.98 5.73v1.99c1.85.27 3.72.38 5.59.33z"
                    ></path>
                    <path
                      fill="#333333"
                      d="M33.53 35.33a90.408 90.408 0 0 1 19.91 10.19l4.63 2.92c1.55.98 3.08 1.92 4.67 2.81 3.11 1.85 6.37 3.42 9.76 4.7 3.51 1.26 7.19 2.02 10.92 2.24 3.97.24 7.96-.01 11.88-.73 7.69-1.5 15.19-3.81 22.39-6.91l3.56-1.5c0-1.78-.12-3.56-.28-5.34-.96-.14-2.03-.27-3.13-.36-5.65-.41-12.68-.18-19.47-.57-3.4-.18-6.8-.48-10.15-.93-3.35-.45-6.68-1-9.99-1.78-3.35-.72-6.64-1.66-9.87-2.81-1.61-.59-3.25-1.22-4.92-1.87l-4.97-2.14a107.46 107.46 0 0 0-21.84-7.53 67.307 67.307 0 0 0-25.81.05A75.238 75.238 0 0 0-20.5 39.69c-.09.62-.18 1.25-.25 1.78a77.033 77.033 0 0 1 30.28-8.91c8.11-.77 16.28.18 24 2.77zM50 121.25c20.97.02 40.88-9.21 54.41-25.24a71.492 71.492 0 0 1-10.9 4.9c-4.24 1.46-8.57 2.65-12.97 3.56-4.26.93-8.39 1.66-12.47 2.32s-8.12 1.21-12.2 1.53c-2.05.12-4.11.21-6.18.25s-4.19-.11-6.29-.25c-8.47-.69-16.8-2.57-24.74-5.61-7.31-2.74-14.34-6.2-20.96-10.33-3.08-1.92-6-3.72-8.73-5.66A71.3 71.3 0 0 0 50 121.25z"
                    ></path>
                    <path
                      fill="#333333"
                      d="M19.24 84a207.33 207.33 0 0 0 21.98 9.21c1.96.68 3.95 1.32 5.97 1.91 2.01.59 4.08 1.19 6.16 1.78 4.17 1.01 8.41 1.73 12.68 2.16 4.38.41 8.79.32 13.14-.25 4.64-.61 9.2-1.76 13.57-3.42a67.142 67.142 0 0 0 20.34-12.25c2.05-3.9 3.73-7.97 5.02-12.18l-.43.43a64.346 64.346 0 0 1-25.54 10.19c-4.57.79-9.19 1.22-13.82 1.26-4.41.04-8.82-.21-13.2-.77-4.08-.49-8.13-1.24-12.11-2.26-1.92-.5-3.81-1.05-5.66-1.6-1.85-.56-3.56-1.21-5.34-1.79-7.12-2.51-13.73-5.02-20.34-6.79-6.52-1.62-13.17-2.61-19.88-2.97-6.57-.5-13.29-.39-18.7-1.96-1.02-.28-2.02-.65-2.97-1.1.23 1.16.48 2.3.75 3.44.59.41 1.21.8 1.78 1.18 5.17 3.03 11.38 4.72 17.44 7.25 6.05 2.51 12.37 5.19 19.16 8.53zM-12.6 23.96a56.768 56.768 0 0 1 24.69-10.1 66.52 66.52 0 0 1 26.29.94c7.82 1.88 15.4 4.68 22.57 8.34l5.09 2.55 4.84 2.58c3.17 1.78 6.29 3.29 9.39 4.68a45.15 45.15 0 0 0 9.51 2.94c3.25.58 6.55.85 9.85.8 6.61 0 13.3-.89 18.54-.41.66 0 1.28.14 1.89.25-.53-2.76-1.23-5.49-2.08-8.18-4.92-3.45-10.11-6.5-15.51-9.12-2.92-1.5-5.93-2.99-9.1-4.33a84.895 84.895 0 0 0-9.92-3.56c-3.42-.94-6.96-1.78-10.69-2.69-1.82-.43-3.65-.84-5.5-1.23-1.78-.43-3.74-.84-5.63-1.21-7.8-1.68-15.75-2.64-23.72-2.87a84.819 84.819 0 0 0-25.83 3.58 65.278 65.278 0 0 0-24.42 13.84 47.369 47.369 0 0 0-4.6 4.9c-.39 1.09-.77 2.19-1.1 3.29 1.63-1.85 3.45-3.52 5.44-4.99z"
                    ></path>
                    <path
                      fill="#333333"
                      d="M59.42-8.93c2.12.52 4.24 1.12 6.32 1.78 2.08.66 4.15 1.53 6.18 2.39 3.99 1.75 7.87 3.73 11.63 5.93 3.67 2.07 7.12 4.08 10.37 5.86s6.34 3.38 9.28 4.86c3.56 1.78 7.04 3.56 10.15 5.47-18.03-34.97-61-48.71-95.97-30.68A71.202 71.202 0 0 0-.85.13c3.56-2.38 7.36-4.4 11.33-6.02a72.011 72.011 0 0 1 23.92-5.18c8.4-.51 16.83.21 25.02 2.14z"
                    ></path>
                  </g>
                </svg>
              </svg>
              <defs>
                <filter id="colors8334271902">
                  <feColorMatrix
                    type="matrix"
                    values="0 0 0 0 0.19921875  0 0 0 0 0.19921875  0 0 0 0 0.19921875  0 0 0 1 0"
                    class="icon-fecolormatrix"
                  ></feColorMatrix>
                </filter>
                <filter id="colorsf9174440993">
                  <feColorMatrix
                    type="matrix"
                    values="0 0 0 0 0.99609375  0 0 0 0 0.99609375  0 0 0 0 0.99609375  0 0 0 1 0"
                    class="icon-fecolormatrix"
                  ></feColorMatrix>
                </filter>
                <filter id="colorsb9916685532">
                  <feColorMatrix
                    type="matrix"
                    values="0 0 0 0 0  0 0 0 0 0  0 0 0 0 0  0 0 0 1 0"
                    class="icon-fecolormatrix"
                  ></feColorMatrix>
                </filter>
              </defs>
            </g>
          </g>
        </g>
      </g>
      <g transform="translate(71, 3.9018288540949477)">
        <g data-gra="path-name" fill="#333" transform="scale(1)">
          <path
            d="M16.51-15.79L22.44-2.25Q22.74-1.53 22.49-0.84Q22.23-0.15 21.52 0.10L21.52 0.10Q21.31 0.20 21.13 0.23Q20.95 0.26 20.80 0.26L20.80 0.26Q20.24 0.26 19.80 0Q19.37-0.26 19.11-0.82L19.11-0.82L12.98-14.87L7.67-14.87L7.67-1.53Q7.67-0.77 7.13-0.26Q6.59 0.26 5.83 0.26L5.83 0.26Q5.11 0.26 4.57-0.26Q4.04-0.77 4.04-1.53L4.04-1.53L4.04-35.93Q4.04-36.70 4.57-37.23Q5.11-37.77 5.83-37.77L5.83-37.77L13.44-37.77Q15.08-37.77 16.58-36.77Q18.09-35.78 19.27-33.99L19.27-33.99Q20.29-32.35 20.85-30.36Q21.41-28.36 21.41-26.32L21.41-26.32Q21.41-24.22 20.85-22.23Q20.29-20.24 19.27-18.60L19.27-18.60Q17.99-16.66 16.51-15.79L16.51-15.79ZM7.67-34.14L7.67-18.45L13.44-18.45Q14.11-18.45 14.85-19.01Q15.59-19.57 16.20-20.55L16.20-20.55Q16.97-21.72 17.40-23.23Q17.84-24.74 17.84-26.32L17.84-26.32Q17.84-27.85 17.40-29.36Q16.97-30.87 16.20-32.04L16.20-32.04Q15.59-33.07 14.85-33.60Q14.11-34.14 13.44-34.14L13.44-34.14L7.67-34.14Z"
            transform="translate(-4.0374787052810905, 38.126064735945484)"
          ></path>
        </g>
      </g>
      <g transform="translate(93, 3.9018288540949477)">
        <g data-gra="path-name" fill="#333" transform="scale(1)">
          <path
            d="M19.32-3.37L19.32-3.37Q20.09-3.37 20.62-2.84Q21.16-2.30 21.16-1.53L21.16-1.53Q21.16-0.82 20.62-0.28Q20.09 0.26 19.32 0.26L19.32 0.26L5.78 0.26Q5.01 0.26 4.47-0.28Q3.94-0.82 3.94-1.53L3.94-1.53L3.94-35.98Q3.94-36.70 4.47-37.23Q5.01-37.77 5.78-37.77L5.78-37.77L19.32-37.77Q20.09-37.77 20.62-37.23Q21.16-36.70 21.16-35.98L21.16-35.98Q21.16-35.21 20.62-34.68Q20.09-34.14 19.32-34.14L19.32-34.14L7.56-34.14L7.56-18.45L16.41-18.45Q17.17-18.45 17.68-17.91Q18.19-17.38 18.19-16.61L18.19-16.61Q18.19-15.89 17.68-15.36Q17.17-14.82 16.41-14.82L16.41-14.82L7.56-14.82L7.56-3.37L19.32-3.37Z"
            transform="translate(-3.93526405451448, 38.126064735945484)"
          ></path>
        </g>
      </g>
      <g transform="translate(114, 3.9018288540949477)">
        <g data-gra="path-name" fill="#333" transform="scale(1)">
          <path
            d="M20.60-2.20L20.60-2.20Q20.85-1.48 20.55-0.79Q20.24-0.10 19.52 0.15L19.52 0.15Q19.32 0.26 18.91 0.26L18.91 0.26Q18.35 0.26 17.89-0.03Q17.43-0.31 17.22-0.87L17.22-0.87L12.06-14.21L6.95-0.87Q6.75-0.31 6.29-0.03Q5.83 0.26 5.26 0.26L5.26 0.26Q4.86 0.26 4.65 0.15L4.65 0.15Q3.94-0.10 3.63-0.79Q3.32-1.48 3.58-2.20L3.58-2.20L8.99-16.25L10.17-19.22L4.09-34.96Q3.83-35.67 4.11-36.36Q4.40-37.05 5.11-37.31L5.11-37.31Q5.83-37.56 6.52-37.28Q7.21-37.00 7.46-36.29L7.46-36.29L12.06-24.28L16.71-36.29Q16.97-37.00 17.63-37.28Q18.30-37.56 19.01-37.31L19.01-37.31Q19.73-37.05 20.03-36.36Q20.34-35.67 20.09-34.96L20.09-34.96L14.00-19.22L20.60-2.20Z"
            transform="translate(-3.4615231047700163, 38.126064735945484)"
          ></path>
        </g>
      </g>
      <g transform="translate(135, 3.9018288540949477)">
        <g data-gra="path-name" fill="#333" transform="scale(1)">
          <path
            d="M6.95 0.26L6.95 0.26Q6.18 0.26 5.67-0.28Q5.16-0.82 5.16-1.53L5.16-1.53L5.16-35.98Q5.16-36.70 5.67-37.23Q6.18-37.77 6.95-37.77L6.95-37.77Q7.67-37.77 8.20-37.23Q8.74-36.70 8.74-35.98L8.74-35.98L8.74-1.53Q8.74-0.82 8.20-0.28Q7.67 0.26 6.95 0.26Z"
            transform="translate(-5.161839863713798, 38.126064735945484)"
          ></path>
        </g>
      </g>
      <g transform="translate(142, 3.9018288540949477)">
        <g data-gra="path-name" fill="#333" transform="scale(1)">
          <path
            d="M18.60-37.77L18.60-37.77Q19.37-37.77 19.91-37.23Q20.44-36.70 20.44-35.98L20.44-35.98Q20.44-35.21 19.91-34.68Q19.37-34.14 18.60-34.14L18.60-34.14L8.13-34.14L8.13-18.45L15.69-18.45Q16.46-18.45 16.97-17.91Q17.48-17.38 17.48-16.61L17.48-16.61Q17.48-15.89 16.97-15.36Q16.46-14.82 15.69-14.82L15.69-14.82L8.13-14.82L8.13-1.53Q8.13-0.82 7.59-0.28Q7.05 0.26 6.34 0.26L6.34 0.26Q5.57 0.26 5.03-0.28Q4.50-0.82 4.50-1.53L4.50-1.53L4.50-35.98Q4.50-36.70 5.03-37.23Q5.57-37.77 6.34-37.77L6.34-37.77L18.60-37.77Z"
            transform="translate(-4.497444633730835, 38.126064735945484)"
          ></path>
        </g>
      </g>
      <g transform="translate(161, 3.9018288540949477)">
        <g data-gra="path-name" fill="#333" transform="scale(1)">
          <path
            d="M18.71-37.56L18.71-37.56Q19.42-37.31 19.70-36.64Q19.98-35.98 19.73-35.26L19.73-35.26L13.24-18.91L13.24-1.53Q13.24-0.77 12.73-0.26Q12.21 0.26 11.45 0.26L11.45 0.26Q10.73 0.26 10.20-0.26Q9.66-0.77 9.66-1.53L9.66-1.53L9.66-18.91L3.17-35.26Q2.91-35.98 3.19-36.64Q3.48-37.31 4.19-37.56L4.19-37.56Q4.91-37.87 5.60-37.59Q6.29-37.31 6.54-36.59L6.54-36.59L11.45-24.12L16.35-36.59Q16.61-37.31 17.30-37.59Q17.99-37.87 18.71-37.56Z"
            transform="translate(-3.0469997737436105, 38.126064735945484)"
          ></path>
        </g>
      </g>
    </g>
    <g
      data-gra="path-slogan"
      fill-rule=""
      class="tp-slogan"
      fill="#333"
      transform="translate(1.0441970825195312,52.798545837402344)"
    >
      <rect width="0"></rect>
      <rect x="178.70999145507812" width="0"></rect>
      <g transform="translate(0,0)">
        <g transform="scale(1)">
          <path
            d="M1.52-1.97L1.52 0L2.18 0L2.18-1.97L3.71-5.10L3.03-5.10L2.38-3.66C2.30-3.48 2.22-3.29 2.13-3.11C2.04-2.93 1.95-2.74 1.87-2.55L1.83-2.55C1.75-2.74 1.66-2.93 1.59-3.11C1.51-3.29 1.43-3.48 1.35-3.66L0.68-5.10L-0.01-5.10ZM6.08 0.09C6.41 0.09 6.70 0.03 6.97-0.09C7.23-0.22 7.46-0.40 7.66-0.63C7.85-0.86 8.00-1.14 8.11-1.47C8.22-1.79 8.27-2.16 8.27-2.57C8.27-2.98 8.22-3.34 8.11-3.67C8.00-3.99 7.85-4.26 7.66-4.49C7.46-4.72 7.23-4.89 6.97-5.01C6.70-5.13 6.41-5.19 6.08-5.19C5.76-5.19 5.47-5.13 5.20-5.01C4.94-4.90 4.71-4.72 4.51-4.50C4.32-4.27 4.17-4.00 4.07-3.67C3.96-3.35 3.91-2.98 3.91-2.57C3.91-2.16 3.96-1.79 4.07-1.47C4.17-1.14 4.32-0.86 4.51-0.63C4.71-0.40 4.94-0.22 5.20-0.09C5.47 0.03 5.76 0.09 6.08 0.09ZM6.08-0.47C5.86-0.47 5.65-0.52 5.47-0.62C5.28-0.72 5.12-0.86 4.99-1.05C4.86-1.23 4.76-1.45 4.68-1.71C4.61-1.96 4.58-2.25 4.58-2.57C4.58-2.89 4.61-3.17 4.68-3.43C4.76-3.68 4.86-3.90 4.99-4.07C5.12-4.25 5.28-4.39 5.47-4.48C5.65-4.58 5.86-4.63 6.08-4.63C6.31-4.63 6.52-4.58 6.70-4.48C6.89-4.39 7.04-4.25 7.18-4.07C7.31-3.90 7.41-3.68 7.48-3.43C7.56-3.17 7.59-2.89 7.59-2.57C7.59-2.25 7.56-1.96 7.48-1.71C7.41-1.45 7.31-1.23 7.18-1.05C7.04-0.86 6.89-0.72 6.70-0.62C6.52-0.52 6.31-0.47 6.08-0.47ZM9.25-5.10L9.25-2.11C9.25-1.70 9.30-1.35 9.39-1.07C9.49-0.79 9.61-0.57 9.78-0.39C9.94-0.22 10.14-0.09 10.36-0.02C10.59 0.06 10.83 0.09 11.09 0.09C11.35 0.09 11.59 0.06 11.81-0.02C12.03-0.09 12.23-0.22 12.39-0.39C12.55-0.57 12.68-0.79 12.78-1.07C12.87-1.35 12.92-1.70 12.92-2.11L12.92-5.10L12.29-5.10L12.29-2.09C12.29-1.79 12.26-1.53 12.20-1.32C12.14-1.11 12.05-0.95 11.94-0.82C11.83-0.70 11.71-0.61 11.56-0.56C11.42-0.50 11.26-0.47 11.09-0.47C10.92-0.47 10.77-0.50 10.62-0.56C10.48-0.61 10.35-0.70 10.24-0.82C10.14-0.95 10.05-1.11 9.99-1.32C9.93-1.53 9.90-1.79 9.90-2.09L9.90-5.10ZM14.85-2.68L14.85-4.58L15.70-4.58C16.10-4.58 16.41-4.51 16.62-4.38C16.83-4.24 16.94-4.01 16.94-3.67C16.94-3.34 16.83-3.09 16.62-2.93C16.41-2.76 16.10-2.68 15.70-2.68ZM17.00 0L17.73 0L16.44-2.22C16.79-2.31 17.07-2.48 17.27-2.71C17.48-2.95 17.58-3.27 17.58-3.67C17.58-3.93 17.54-4.16 17.45-4.34C17.36-4.52 17.24-4.67 17.08-4.78C16.93-4.90 16.74-4.98 16.52-5.03C16.30-5.08 16.06-5.10 15.80-5.10L14.20-5.10L14.20 0L14.85 0L14.85-2.15L15.77-2.15ZM21.99 0.09C22.32 0.09 22.61 0.03 22.88-0.09C23.14-0.22 23.37-0.40 23.57-0.63C23.76-0.86 23.91-1.14 24.02-1.47C24.13-1.79 24.18-2.16 24.18-2.57C24.18-2.98 24.13-3.34 24.02-3.67C23.91-3.99 23.76-4.26 23.57-4.49C23.37-4.72 23.14-4.89 22.88-5.01C22.61-5.13 22.32-5.19 21.99-5.19C21.67-5.19 21.38-5.13 21.11-5.01C20.84-4.90 20.62-4.72 20.42-4.50C20.23-4.27 20.08-4.00 19.98-3.67C19.87-3.35 19.82-2.98 19.82-2.57C19.82-2.16 19.87-1.79 19.98-1.47C20.08-1.14 20.23-0.86 20.42-0.63C20.62-0.40 20.84-0.22 21.11-0.09C21.38 0.03 21.67 0.09 21.99 0.09ZM21.99-0.47C21.77-0.47 21.56-0.52 21.38-0.62C21.19-0.72 21.03-0.86 20.90-1.05C20.77-1.23 20.67-1.45 20.59-1.71C20.52-1.96 20.49-2.25 20.49-2.57C20.49-2.89 20.52-3.17 20.59-3.43C20.67-3.68 20.77-3.90 20.90-4.07C21.03-4.25 21.19-4.39 21.38-4.48C21.56-4.58 21.77-4.63 21.99-4.63C22.22-4.63 22.43-4.58 22.61-4.48C22.80-4.39 22.95-4.25 23.09-4.07C23.22-3.90 23.32-3.68 23.39-3.43C23.47-3.17 23.50-2.89 23.50-2.57C23.50-2.25 23.47-1.96 23.39-1.71C23.32-1.45 23.22-1.23 23.09-1.05C22.95-0.86 22.80-0.72 22.61-0.62C22.43-0.52 22.22-0.47 21.99-0.47ZM25.19-5.10L25.19 0L25.80 0L25.80-2.67C25.80-2.94 25.79-3.20 25.77-3.47C25.76-3.74 25.74-4.00 25.72-4.26L25.75-4.26L26.30-3.21L28.15 0L28.82 0L28.82-5.10L28.20-5.10L28.20-2.46C28.20-2.20 28.21-1.92 28.23-1.64C28.25-1.37 28.27-1.10 28.28-0.84L28.25-0.84L27.70-1.90L25.86-5.10ZM30.13-5.10L30.13 0L33.14 0L33.14-0.55L30.77-0.55L30.77-2.40L32.71-2.40L32.71-2.95L30.77-2.95L30.77-4.56L33.07-4.56L33.07-5.10ZM33.76-2.19L33.76-1.70L35.54-1.70L35.54-2.19ZM36.48-1.11L36.09-0.66C36.32-0.43 36.58-0.24 36.89-0.11C37.19 0.03 37.52 0.09 37.88 0.09C38.15 0.09 38.39 0.06 38.60-0.02C38.82-0.09 39.00-0.20 39.15-0.33C39.30-0.46 39.41-0.62 39.49-0.79C39.57-0.97 39.61-1.16 39.61-1.36C39.61-1.55 39.59-1.71 39.53-1.85C39.48-2.00 39.40-2.12 39.31-2.23C39.22-2.33 39.11-2.43 38.98-2.51C38.85-2.59 38.71-2.66 38.57-2.72L37.84-3.03C37.74-3.07 37.64-3.12 37.54-3.17C37.44-3.22 37.35-3.27 37.27-3.34C37.18-3.40 37.12-3.48 37.07-3.56C37.02-3.65 36.99-3.76 36.99-3.88C36.99-4.11 37.08-4.30 37.25-4.43C37.43-4.56 37.66-4.63 37.94-4.63C38.18-4.63 38.40-4.58 38.58-4.50C38.77-4.41 38.95-4.29 39.10-4.14L39.45-4.56C39.27-4.75 39.05-4.90 38.79-5.02C38.53-5.14 38.25-5.19 37.94-5.19C37.71-5.19 37.50-5.16 37.30-5.09C37.11-5.03 36.94-4.93 36.80-4.81C36.65-4.69 36.54-4.54 36.46-4.38C36.38-4.21 36.34-4.03 36.34-3.84C36.34-3.65 36.37-3.49 36.43-3.35C36.50-3.20 36.58-3.08 36.68-2.98C36.77-2.87 36.89-2.79 37.01-2.71C37.13-2.64 37.26-2.58 37.38-2.53L38.11-2.21C38.23-2.15 38.34-2.10 38.44-2.04C38.54-1.99 38.63-1.93 38.71-1.87C38.78-1.81 38.84-1.73 38.89-1.64C38.93-1.55 38.95-1.44 38.95-1.31C38.95-1.06 38.86-0.86 38.67-0.70C38.49-0.55 38.23-0.47 37.89-0.47C37.62-0.47 37.37-0.53 37.12-0.65C36.88-0.77 36.66-0.92 36.48-1.11ZM41.43-4.56L41.43 0L42.08 0L42.08-4.56L43.62-4.56L43.62-5.10L39.89-5.10L39.89-4.56ZM46.15 0.09C46.47 0.09 46.76 0.03 47.03-0.09C47.30-0.22 47.53-0.40 47.72-0.63C47.92-0.86 48.07-1.14 48.17-1.47C48.28-1.79 48.33-2.16 48.33-2.57C48.33-2.98 48.28-3.34 48.17-3.67C48.07-3.99 47.92-4.26 47.72-4.49C47.53-4.72 47.30-4.89 47.03-5.01C46.76-5.13 46.47-5.19 46.15-5.19C45.83-5.19 45.53-5.13 45.26-5.01C45.00-4.90 44.77-4.72 44.58-4.50C44.38-4.27 44.24-4.00 44.13-3.67C44.02-3.35 43.97-2.98 43.97-2.57C43.97-2.16 44.02-1.79 44.13-1.47C44.24-1.14 44.38-0.86 44.58-0.63C44.77-0.40 45.00-0.22 45.26-0.09C45.53 0.03 45.83 0.09 46.15 0.09ZM46.15-0.47C45.92-0.47 45.71-0.52 45.53-0.62C45.34-0.72 45.19-0.86 45.05-1.05C44.92-1.23 44.82-1.45 44.75-1.71C44.67-1.96 44.64-2.25 44.64-2.57C44.64-2.89 44.67-3.17 44.75-3.43C44.82-3.68 44.92-3.90 45.05-4.07C45.19-4.25 45.34-4.39 45.53-4.48C45.71-4.58 45.92-4.63 46.15-4.63C46.37-4.63 46.58-4.58 46.76-4.48C46.95-4.39 47.11-4.25 47.24-4.07C47.37-3.90 47.47-3.68 47.55-3.43C47.62-3.17 47.66-2.89 47.66-2.57C47.66-2.25 47.62-1.96 47.55-1.71C47.47-1.45 47.37-1.23 47.24-1.05C47.11-0.86 46.95-0.72 46.76-0.62C46.58-0.52 46.37-0.47 46.15-0.47ZM49.34-5.10L49.34 0L49.98 0L49.98-2.02L50.90-2.02C51.18-2.02 51.44-2.05 51.67-2.12C51.90-2.18 52.10-2.28 52.26-2.41C52.43-2.54 52.56-2.70 52.65-2.90C52.74-3.10 52.78-3.33 52.78-3.60C52.78-3.88 52.74-4.12 52.65-4.31C52.56-4.50 52.43-4.65 52.27-4.77C52.10-4.89 51.90-4.97 51.67-5.02C51.44-5.07 51.18-5.10 50.90-5.10ZM50.82-2.55L49.98-2.55L49.98-4.58L50.82-4.58C51.26-4.58 51.59-4.51 51.81-4.37C52.03-4.22 52.14-3.97 52.14-3.60C52.14-3.24 52.03-2.97 51.82-2.80C51.60-2.63 51.27-2.55 50.82-2.55ZM53.15-2.19L53.15-1.70L54.94-1.70L54.94-2.19ZM55.88-1.11L55.49-0.66C55.71-0.43 55.98-0.24 56.28-0.11C56.59 0.03 56.92 0.09 57.28 0.09C57.55 0.09 57.79 0.06 58.00-0.02C58.21-0.09 58.40-0.20 58.55-0.33C58.70-0.46 58.81-0.62 58.89-0.79C58.97-0.97 59.01-1.16 59.01-1.36C59.01-1.55 58.98-1.71 58.93-1.85C58.88-2.00 58.80-2.12 58.71-2.23C58.62-2.33 58.50-2.43 58.37-2.51C58.24-2.59 58.11-2.66 57.96-2.72L57.24-3.03C57.14-3.07 57.03-3.12 56.94-3.17C56.84-3.22 56.75-3.27 56.66-3.34C56.58-3.40 56.52-3.48 56.47-3.56C56.42-3.65 56.39-3.76 56.39-3.88C56.39-4.11 56.48-4.30 56.65-4.43C56.83-4.56 57.06-4.63 57.34-4.63C57.58-4.63 57.79-4.58 57.98-4.50C58.17-4.41 58.34-4.29 58.50-4.14L58.85-4.56C58.67-4.75 58.45-4.90 58.19-5.02C57.93-5.14 57.65-5.19 57.34-5.19C57.11-5.19 56.89-5.16 56.70-5.09C56.50-5.03 56.34-4.93 56.19-4.81C56.05-4.69 55.94-4.54 55.86-4.38C55.78-4.21 55.74-4.03 55.74-3.84C55.74-3.65 55.77-3.49 55.83-3.35C55.89-3.20 55.97-3.08 56.07-2.98C56.17-2.87 56.28-2.79 56.41-2.71C56.53-2.64 56.65-2.58 56.77-2.53L57.50-2.21C57.62-2.15 57.73-2.10 57.84-2.04C57.94-1.99 58.03-1.93 58.11-1.87C58.18-1.81 58.24-1.73 58.29-1.64C58.33-1.55 58.35-1.44 58.35-1.31C58.35-1.06 58.26-0.86 58.07-0.70C57.88-0.55 57.62-0.47 57.29-0.47C57.02-0.47 56.77-0.53 56.52-0.65C56.27-0.77 56.06-0.92 55.88-1.11ZM59.93-5.10L59.93 0L60.57 0L60.57-2.40L62.94-2.40L62.94 0L63.60 0L63.60-5.10L62.94-5.10L62.94-2.96L60.57-2.96L60.57-5.10ZM66.79 0.09C67.11 0.09 67.40 0.03 67.67-0.09C67.94-0.22 68.17-0.40 68.36-0.63C68.56-0.86 68.71-1.14 68.81-1.47C68.92-1.79 68.97-2.16 68.97-2.57C68.97-2.98 68.92-3.34 68.81-3.67C68.71-3.99 68.56-4.26 68.36-4.49C68.17-4.72 67.94-4.89 67.67-5.01C67.40-5.13 67.11-5.19 66.79-5.19C66.47-5.19 66.17-5.13 65.91-5.01C65.64-4.90 65.41-4.72 65.22-4.50C65.03-4.27 64.88-4.00 64.77-3.67C64.66-3.35 64.61-2.98 64.61-2.57C64.61-2.16 64.66-1.79 64.77-1.47C64.88-1.14 65.03-0.86 65.22-0.63C65.41-0.40 65.64-0.22 65.91-0.09C66.17 0.03 66.47 0.09 66.79 0.09ZM66.79-0.47C66.56-0.47 66.35-0.52 66.17-0.62C65.99-0.72 65.83-0.86 65.70-1.05C65.56-1.23 65.46-1.45 65.39-1.71C65.32-1.96 65.28-2.25 65.28-2.57C65.28-2.89 65.32-3.17 65.39-3.43C65.46-3.68 65.56-3.90 65.70-4.07C65.83-4.25 65.99-4.39 66.17-4.48C66.35-4.58 66.56-4.63 66.79-4.63C67.02-4.63 67.22-4.58 67.41-4.48C67.59-4.39 67.75-4.25 67.88-4.07C68.01-3.90 68.12-3.68 68.19-3.43C68.26-3.17 68.30-2.89 68.30-2.57C68.30-2.25 68.26-1.96 68.19-1.71C68.12-1.45 68.01-1.23 67.88-1.05C67.75-0.86 67.59-0.72 67.41-0.62C67.22-0.52 67.02-0.47 66.79-0.47ZM69.98-5.10L69.98 0L70.63 0L70.63-2.02L71.54-2.02C71.82-2.02 72.08-2.05 72.31-2.12C72.54-2.18 72.74-2.28 72.90-2.41C73.07-2.54 73.20-2.70 73.29-2.90C73.38-3.10 73.42-3.33 73.42-3.60C73.42-3.88 73.38-4.12 73.29-4.31C73.20-4.50 73.07-4.65 72.91-4.77C72.74-4.89 72.55-4.97 72.31-5.02C72.08-5.07 71.82-5.10 71.54-5.10ZM71.47-2.55L70.63-2.55L70.63-4.58L71.47-4.58C71.91-4.58 72.24-4.51 72.45-4.37C72.67-4.22 72.78-3.97 72.78-3.60C72.78-3.24 72.67-2.97 72.46-2.80C72.24-2.63 71.91-2.55 71.47-2.55ZM75.85-5.10L75.85 0L76.50 0L76.50-2.29L78.44-2.29L78.44-2.83L76.50-2.83L76.50-4.56L78.79-4.56L78.79-5.10ZM81.41 0.09C81.73 0.09 82.02 0.03 82.29-0.09C82.56-0.22 82.79-0.40 82.98-0.63C83.18-0.86 83.33-1.14 83.43-1.47C83.54-1.79 83.59-2.16 83.59-2.57C83.59-2.98 83.54-3.34 83.43-3.67C83.33-3.99 83.18-4.26 82.98-4.49C82.79-4.72 82.56-4.89 82.29-5.01C82.02-5.13 81.73-5.19 81.41-5.19C81.09-5.19 80.79-5.13 80.52-5.01C80.26-4.90 80.03-4.72 79.84-4.50C79.65-4.27 79.50-4.00 79.39-3.67C79.28-3.35 79.23-2.98 79.23-2.57C79.23-2.16 79.28-1.79 79.39-1.47C79.50-1.14 79.65-0.86 79.84-0.63C80.03-0.40 80.26-0.22 80.52-0.09C80.79 0.03 81.09 0.09 81.41 0.09ZM81.41-0.47C81.18-0.47 80.97-0.52 80.79-0.62C80.61-0.72 80.45-0.86 80.32-1.05C80.18-1.23 80.08-1.45 80.01-1.71C79.94-1.96 79.90-2.25 79.90-2.57C79.90-2.89 79.94-3.17 80.01-3.43C80.08-3.68 80.18-3.90 80.32-4.07C80.45-4.25 80.61-4.39 80.79-4.48C80.97-4.58 81.18-4.63 81.41-4.63C81.64-4.63 81.84-4.58 82.03-4.48C82.21-4.39 82.37-4.25 82.50-4.07C82.63-3.90 82.73-3.68 82.81-3.43C82.88-3.17 82.92-2.89 82.92-2.57C82.92-2.25 82.88-1.96 82.81-1.71C82.73-1.45 82.63-1.23 82.50-1.05C82.37-0.86 82.21-0.72 82.03-0.62C81.84-0.52 81.64-0.47 81.41-0.47ZM85.24-2.68L85.24-4.58L86.10-4.58C86.50-4.58 86.81-4.51 87.02-4.38C87.23-4.24 87.34-4.01 87.34-3.67C87.34-3.34 87.23-3.09 87.02-2.93C86.81-2.76 86.50-2.68 86.10-2.68ZM87.40 0L88.13 0L86.84-2.22C87.19-2.31 87.46-2.48 87.67-2.71C87.88-2.95 87.98-3.27 87.98-3.67C87.98-3.93 87.94-4.16 87.85-4.34C87.76-4.52 87.64-4.67 87.48-4.78C87.32-4.90 87.13-4.98 86.91-5.03C86.69-5.08 86.45-5.10 86.19-5.10L84.60-5.10L84.60 0L85.24 0L85.24-2.15L86.17-2.15ZM90.51-5.10L90.51 0L91.15 0L91.15-2.29L93.10-2.29L93.10-2.83L91.15-2.83L91.15-4.56L93.45-4.56L93.45-5.10ZM96.07 0.09C96.39 0.09 96.68 0.03 96.95-0.09C97.21-0.22 97.45-0.40 97.64-0.63C97.83-0.86 97.98-1.14 98.09-1.47C98.20-1.79 98.25-2.16 98.25-2.57C98.25-2.98 98.20-3.34 98.09-3.67C97.98-3.99 97.83-4.26 97.64-4.49C97.45-4.72 97.21-4.89 96.95-5.01C96.68-5.13 96.39-5.19 96.07-5.19C95.74-5.19 95.45-5.13 95.18-5.01C94.92-4.90 94.69-4.72 94.49-4.50C94.30-4.27 94.15-4.00 94.05-3.67C93.94-3.35 93.89-2.98 93.89-2.57C93.89-2.16 93.94-1.79 94.05-1.47C94.15-1.14 94.30-0.86 94.49-0.63C94.69-0.40 94.92-0.22 95.18-0.09C95.45 0.03 95.74 0.09 96.07 0.09ZM96.07-0.47C95.84-0.47 95.63-0.52 95.45-0.62C95.26-0.72 95.11-0.86 94.97-1.05C94.84-1.23 94.74-1.45 94.67-1.71C94.59-1.96 94.56-2.25 94.56-2.57C94.56-2.89 94.59-3.17 94.67-3.43C94.74-3.68 94.84-3.90 94.97-4.07C95.11-4.25 95.26-4.39 95.45-4.48C95.63-4.58 95.84-4.63 96.07-4.63C96.29-4.63 96.50-4.58 96.68-4.48C96.87-4.39 97.03-4.25 97.16-4.07C97.29-3.90 97.39-3.68 97.46-3.43C97.54-3.17 97.57-2.89 97.57-2.57C97.57-2.25 97.54-1.96 97.46-1.71C97.39-1.45 97.29-1.23 97.16-1.05C97.03-0.86 96.87-0.72 96.68-0.62C96.50-0.52 96.29-0.47 96.07-0.47ZM99.90-2.68L99.90-4.58L100.76-4.58C101.16-4.58 101.46-4.51 101.68-4.38C101.89-4.24 101.99-4.01 101.99-3.67C101.99-3.34 101.89-3.09 101.68-2.93C101.46-2.76 101.16-2.68 100.76-2.68ZM102.06 0L102.79 0L101.50-2.22C101.84-2.31 102.12-2.48 102.33-2.71C102.54-2.95 102.64-3.27 102.64-3.67C102.64-3.93 102.60-4.16 102.51-4.34C102.42-4.52 102.30-4.67 102.14-4.78C101.98-4.90 101.79-4.98 101.57-5.03C101.35-5.08 101.11-5.10 100.85-5.10L99.26-5.10L99.26 0L99.90 0L99.90-2.15L100.83-2.15ZM103.69-5.10L103.69 0L106.70 0L106.70-0.55L104.33-0.55L104.33-2.40L106.27-2.40L106.27-2.95L104.33-2.95L104.33-4.56L106.63-4.56L106.63-5.10ZM108.60-2.64L107.11 0L107.80 0L108.53-1.38C108.60-1.50 108.66-1.63 108.73-1.76C108.80-1.89 108.87-2.04 108.94-2.19L108.97-2.19C109.05-2.04 109.13-1.89 109.20-1.76C109.27-1.63 109.34-1.50 109.41-1.38L110.15 0L110.87 0L109.38-2.60L110.77-5.10L110.09-5.10L109.41-3.79C109.35-3.68 109.29-3.56 109.24-3.45C109.18-3.34 109.12-3.21 109.05-3.06L109.02-3.06C108.94-3.21 108.87-3.34 108.81-3.45C108.75-3.56 108.69-3.68 108.62-3.79L107.93-5.10L107.21-5.10ZM113.08-5.10L113.08 0L114.38 0C114.77 0 115.11-0.06 115.40-0.17C115.70-0.29 115.94-0.46 116.15-0.68C116.35-0.90 116.50-1.17 116.61-1.49C116.71-1.81 116.76-2.17 116.76-2.57C116.76-3.39 116.56-4.01 116.15-4.45C115.74-4.88 115.14-5.10 114.35-5.10ZM114.30-0.53L113.72-0.53L113.72-4.57L114.30-4.57C114.90-4.57 115.35-4.40 115.65-4.06C115.94-3.72 116.09-3.22 116.09-2.57C116.09-1.93 115.94-1.42 115.65-1.07C115.35-0.71 114.90-0.53 114.30-0.53ZM119.86-2.08L118.33-2.08L118.57-2.85C118.66-3.14 118.75-3.42 118.83-3.70C118.92-3.99 119.00-4.28 119.07-4.57L119.11-4.57C119.19-4.28 119.27-3.99 119.35-3.70C119.44-3.42 119.53-3.14 119.62-2.85ZM120.02-1.56L120.51 0L121.20 0L119.47-5.10L118.74-5.10L117.01 0L117.68 0L118.17-1.56ZM122.58-4.56L122.58 0L123.23 0L123.23-4.56L124.77-4.56L124.77-5.10L121.04-5.10L121.04-4.56ZM127.46-2.08L125.93-2.08L126.17-2.85C126.26-3.14 126.35-3.42 126.43-3.70C126.51-3.99 126.59-4.28 126.67-4.57L126.70-4.57C126.79-4.28 126.87-3.99 126.95-3.70C127.04-3.42 127.12-3.14 127.22-2.85ZM127.62-1.56L128.10 0L128.79 0L127.07-5.10L126.34-5.10L124.61 0L125.27 0L125.76-1.56ZM133.08-2.08L131.55-2.08L131.79-2.85C131.88-3.14 131.97-3.42 132.05-3.70C132.14-3.99 132.22-4.28 132.29-4.57L132.33-4.57C132.41-4.28 132.49-3.99 132.57-3.70C132.66-3.42 132.75-3.14 132.84-2.85ZM133.24-1.56L133.73 0L134.42 0L132.69-5.10L131.96-5.10L130.23 0L130.90 0L131.38-1.56ZM135.05-5.10L135.05 0L135.67 0L135.67-2.67C135.67-2.94 135.66-3.20 135.64-3.47C135.62-3.74 135.60-4.00 135.58-4.26L135.61-4.26L136.16-3.21L138.01 0L138.68 0L138.68-5.10L138.07-5.10L138.07-2.46C138.07-2.20 138.08-1.92 138.10-1.64C138.11-1.37 138.13-1.10 138.15-0.84L138.11-0.84L137.56-1.90L135.72-5.10ZM139.99-5.10L139.99 0L141.30 0C141.68 0 142.02-0.06 142.32-0.17C142.61-0.29 142.86-0.46 143.06-0.68C143.27-0.90 143.42-1.17 143.52-1.49C143.63-1.81 143.68-2.17 143.68-2.57C143.68-3.39 143.47-4.01 143.06-4.45C142.65-4.88 142.06-5.10 141.27-5.10ZM141.22-0.53L140.64-0.53L140.64-4.57L141.22-4.57C141.82-4.57 142.26-4.40 142.56-4.06C142.86-3.72 143.01-3.22 143.01-2.57C143.01-1.93 142.86-1.42 142.56-1.07C142.26-0.71 141.82-0.53 141.22-0.53ZM146.17-5.10L146.17 0L146.81 0L146.81-5.10ZM148.12-5.10L148.12 0L148.74 0L148.74-2.67C148.74-2.94 148.73-3.20 148.71-3.47C148.69-3.74 148.67-4.00 148.65-4.26L148.68-4.26L149.24-3.21L151.09 0L151.75 0L151.75-5.10L151.14-5.10L151.14-2.46C151.14-2.20 151.15-1.92 151.17-1.64C151.19-1.37 151.20-1.10 151.22-0.84L151.19-0.84L150.63-1.90L148.79-5.10ZM153.08-1.11L152.69-0.66C152.91-0.43 153.18-0.24 153.48-0.11C153.79 0.03 154.12 0.09 154.48 0.09C154.75 0.09 154.99 0.06 155.20-0.02C155.42-0.09 155.60-0.20 155.75-0.33C155.90-0.46 156.01-0.62 156.09-0.79C156.17-0.97 156.21-1.16 156.21-1.36C156.21-1.55 156.19-1.71 156.13-1.85C156.08-2.00 156.00-2.12 155.91-2.23C155.82-2.33 155.71-2.43 155.58-2.51C155.45-2.59 155.31-2.66 155.16-2.72L154.44-3.03C154.34-3.07 154.24-3.12 154.14-3.17C154.04-3.22 153.95-3.27 153.87-3.34C153.78-3.40 153.72-3.48 153.67-3.56C153.62-3.65 153.59-3.76 153.59-3.88C153.59-4.11 153.68-4.30 153.85-4.43C154.03-4.56 154.26-4.63 154.54-4.63C154.78-4.63 154.99-4.58 155.18-4.50C155.37-4.41 155.55-4.29 155.70-4.14L156.05-4.56C155.87-4.75 155.65-4.90 155.39-5.02C155.13-5.14 154.85-5.19 154.54-5.19C154.31-5.19 154.10-5.16 153.90-5.09C153.71-5.03 153.54-4.93 153.40-4.81C153.25-4.69 153.14-4.54 153.06-4.38C152.98-4.21 152.94-4.03 152.94-3.84C152.94-3.65 152.97-3.49 153.03-3.35C153.10-3.20 153.18-3.08 153.27-2.98C153.37-2.87 153.48-2.79 153.61-2.71C153.73-2.64 153.86-2.58 153.97-2.53L154.71-2.21C154.82-2.15 154.94-2.10 155.04-2.04C155.14-1.99 155.23-1.93 155.31-1.87C155.38-1.81 155.44-1.73 155.49-1.64C155.53-1.55 155.55-1.44 155.55-1.31C155.55-1.06 155.46-0.86 155.27-0.70C155.09-0.55 154.82-0.47 154.49-0.47C154.22-0.47 153.97-0.53 153.72-0.65C153.48-0.77 153.26-0.92 153.08-1.11ZM157.13-5.10L157.13 0L157.77 0L157.77-5.10ZM158.79-2.55C158.79-2.14 158.85-1.76 158.96-1.43C159.07-1.11 159.23-0.83 159.43-0.60C159.64-0.38 159.88-0.20 160.16-0.09C160.44 0.03 160.75 0.09 161.08 0.09C161.42 0.09 161.73 0.04 162.00-0.07C162.28-0.19 162.49-0.33 162.66-0.50L162.66-2.64L160.99-2.64L160.99-2.11L162.07-2.11L162.07-0.78C161.97-0.68 161.83-0.61 161.67-0.56C161.51-0.50 161.33-0.47 161.15-0.47C160.88-0.47 160.63-0.52 160.43-0.62C160.22-0.72 160.04-0.86 159.90-1.04C159.75-1.22 159.64-1.44 159.57-1.70C159.49-1.96 159.46-2.24 159.46-2.57C159.46-2.88 159.50-3.17 159.58-3.42C159.66-3.68 159.77-3.89 159.92-4.07C160.06-4.25 160.24-4.39 160.44-4.48C160.65-4.58 160.89-4.63 161.14-4.63C161.40-4.63 161.62-4.58 161.79-4.49C161.95-4.40 162.10-4.29 162.23-4.15L162.60-4.56C162.45-4.72 162.25-4.86 162.02-5.00C161.78-5.13 161.49-5.19 161.14-5.19C160.79-5.19 160.48-5.13 160.20-5.01C159.91-4.89 159.66-4.71 159.45-4.49C159.24-4.26 159.08-3.98 158.96-3.65C158.85-3.33 158.79-2.96 158.79-2.55ZM163.79-5.10L163.79 0L164.44 0L164.44-2.40L166.81-2.40L166.81 0L167.46 0L167.46-5.10L166.81-5.10L166.81-2.96L164.44-2.96L164.44-5.10ZM169.83-4.56L169.83 0L170.48 0L170.48-4.56L172.02-4.56L172.02-5.10L168.29-5.10L168.29-4.56ZM172.56-1.11L172.17-0.66C172.40-0.43 172.66-0.24 172.97-0.11C173.27 0.03 173.61 0.09 173.96 0.09C174.23 0.09 174.47 0.06 174.69-0.02C174.90-0.09 175.08-0.20 175.23-0.33C175.38-0.46 175.50-0.62 175.58-0.79C175.66-0.97 175.70-1.16 175.70-1.36C175.70-1.55 175.67-1.71 175.62-1.85C175.56-2.00 175.49-2.12 175.39-2.23C175.30-2.33 175.19-2.43 175.06-2.51C174.93-2.59 174.79-2.66 174.65-2.72L173.92-3.03C173.82-3.07 173.72-3.12 173.62-3.17C173.52-3.22 173.43-3.27 173.35-3.34C173.27-3.40 173.20-3.48 173.15-3.56C173.10-3.65 173.08-3.76 173.08-3.88C173.08-4.11 173.16-4.30 173.34-4.43C173.51-4.56 173.74-4.63 174.03-4.63C174.26-4.63 174.48-4.58 174.67-4.50C174.86-4.41 175.03-4.29 175.18-4.14L175.53-4.56C175.35-4.75 175.13-4.90 174.87-5.02C174.61-5.14 174.33-5.19 174.03-5.19C173.79-5.19 173.58-5.16 173.38-5.09C173.19-5.03 173.02-4.93 172.88-4.81C172.74-4.69 172.62-4.54 172.54-4.38C172.46-4.21 172.42-4.03 172.42-3.84C172.42-3.65 172.45-3.49 172.52-3.35C172.58-3.20 172.66-3.08 172.76-2.98C172.86-2.87 172.97-2.79 173.09-2.71C173.22-2.64 173.34-2.58 173.46-2.53L174.19-2.21C174.31-2.15 174.42-2.10 174.52-2.04C174.63-1.99 174.72-1.93 174.79-1.87C174.87-1.81 174.93-1.73 174.97-1.64C175.01-1.55 175.04-1.44 175.04-1.31C175.04-1.06 174.94-0.86 174.76-0.70C174.57-0.55 174.31-0.47 173.97-0.47C173.71-0.47 173.45-0.53 173.20-0.65C172.96-0.77 172.74-0.92 172.56-1.11Z"
            transform="translate(0.007775042114811454, 5.193728132694051)"
          ></path>
        </g>
      </g>
    </g>
  </g>
  <defs v-gra="od"></defs>
</svg>